# AST/ASF file generated using VICON BodyLanguage
# -----------------------------------------------
:version 1.10
:name VICON
:units
  mass 1.0
  length 0.45
  angle deg
:documentation
   .ast/.asf automatically generated from VICON data using
   VICON BodyBuilder and BodyLanguage model FoxedUp or BRILLIANT.MOD
:root
   order TX TY TZ RX RY RZ
   axis XYZ
   position 0 0 0  
   orientation 0 0 0 
:bonedata
  begin
     id 1 
     name lhipjoint
     direction 0.528046 -0.759594 0.379717 
     length 2.39752 
     axis 0 0 0  XYZ
  end
  begin
     id 2 
     name lfemur
     direction 0.34202 -0.939693 0  
     length 7.31175  
     axis 0 0 20  XYZ
    dof rx ry rz
    limits (-160.0 20.0)
           (-70.0 70.0)
           (-60.0 70.0)
  end
  begin
     id 3 
     name ltibia
     direction 0.34202 -0.939693 0   
     length 7.52482   
     axis 0 0 20   XYZ
    dof rx
    limits (-10.0 170.0)
  end
  begin
     id 4 
     name lfoot
     direction 0.0675379 -0.185559 0.980309   
     length 2.00961   
     axis -90 7.62852e-016 20   XYZ
    dof rx rz
    limits (-45.0 90.0)
           (-70.0 20.0)
  end
  begin
     id 5 
     name ltoes
     direction 1.5352e-011 -4.22286e-011 1   
     length 1.01383   
     axis -90 7.62852e-016 20   XYZ
    dof rx
    limits (-90.0 20.0)
  end
  begin
     id 6 
     name rhipjoint
     direction -0.510274 -0.769251 0.384544   
     length 2.36742  
     axis 0 0 0  XYZ 
  end
  begin
     id 7 
     name rfemur
     direction -0.34202 -0.939693 0   
     length 7.45325   
     axis 0 0 -20   XYZ
    dof rx ry rz
    limits (-160.0 20.0)
           (-70.0 70.0)
           (-70.0 60.0)
  end
  begin
     id 8 
     name rtibia
     direction -0.34202 -0.939693 0   
     length 7.49587   
     axis 0 0 -20   XYZ
    dof rx
    limits (-10.0 170.0)
 end
 begin
     id 9 
     name rfoot
     direction -0.106475 -0.292536 0.950308   
     length 2.20898  
     axis -90 -7.62852e-016 -20   XYZ
    dof rx rz
    limits (-45.0 90.0)
           (-20.0 70.0)
  end
  begin
     id 10 
     name rtoes
     direction -1.53597e-011 -4.22023e-011 1   
     length 1.10065   
     axis -90 -7.62852e-016 -20   XYZ
    dof rx
    limits (-90.0 20.0)
  end
  begin
     id 11 
     name lowerback
     direction 0.0260024 0.998026 -0.0571652   
     length 2.11214   
     axis 0 0 0   XYZ
    dof rx ry rz
    limits (-20.0 45.0)
           (-30.0 30.0)
           (-30.0 30.0)
  end
  begin
     id 12 
     name upperback
     direction 0.0216202 0.999542 -0.0211766   
     length 2.11689   
     axis 0 0 0   XYZ
    dof rx ry rz
    limits (-20.0 45.0)
           (-30.0 30.0)
           (-30.0 30.0)
  end
  begin
     id 13 
     name thorax
     direction 0.00883312 0.999944 0.00589057   
     length 2.11821   
     axis 0 0 0   XYZ
    dof rx ry rz
    limits (-20.0 45.0)
           (-30.0 30.0)
           (-30.0 30.0)
  end
  begin
     id 14 
     name lowerneck
     direction -0.059386 0.994433 0.0870401   
     length 1.81176   
     axis 0 0 0   XYZ
    dof rx ry rz
    limits (-20.0 45.0)
           (-30.0 30.0)
           (-30.0 30.0)
  end
  begin
     id 15 
     name upperneck
     direction 0.0506457 0.97328 -0.223967   
     length 1.82382   
     axis 0 0 0   XYZ
    dof rx ry rz
    limits (-20.0 45.0)
           (-30.0 30.0)
           (-30.0 30.0)
  end
  begin
     id 16
     name head
     direction 0.0205902 0.996147 -0.0852487  
     length 1.84805  
     axis 0 0 0   XYZ
    dof rx ry rz
    limits (-20.0 45.0)
           (-30.0 30.0)
           (-30.0 30.0)
  end
  begin
     id 17 
     name lclavicle
     direction 0.949493 0.303881 -0.0782325  
     length 3.60584  
     axis 0 0 0   XYZ
    dof ry rz
    limits (-20.0 10.0)
           (0.0 20.0)
  end
  begin
     id 18 
     name lhumerus
     direction 1 -4.48965e-011 1.48782e-027   
     length 4.95681   
     axis 180 -30 -90   XYZ
    dof rx ry rz
    limits (-60.0 90.0)
           (-90.0 90.0)
           (-90.0 90.0)
  end
  begin
     id 19
     name lradius
     direction 1 -4.48952e-011 2.06528e-027   
     length 3.40915   
     axis 180 -30 -90   XYZ
    dof rx
    limits (-10.0 170.0)
  end
  begin
     id 20
     name lwrist
     direction 1 -4.48964e-011 1.28021e-027   
     length 1.70457   
     axis -1.61767e-015 90 90   XYZ
    dof ry
    limits (-180.0 0.0)
 end
  begin
     id 21 
     name lhand
     direction 1 -4.49094e-011 2.54887e-027   
     length 0.616403   
     axis -1.63363e-015 90 90   XYZ
    dof rx rz
    limits (-90.0 90.0)
           (-45.0 45.0)
  end
  begin
     id 22 
     name lfingers
     direction 1 -4.49002e-011 5.11407e-027   
     length 0.49696   
     axis -3.26723e-015 90 90   XYZ
    dof rx
    limits (0.0 90.0)
  end
  begin
     id 23
     name lthumb
     direction 0.707107 -6.34998e-011 0.707107   
     length 0.713539   
     axis -90 45 -2.25915e-014   XYZ
    dof rx rz
    limits (-45.0 45.0)
           (-45.0 45.0)
  end
  begin
     id 24 
     name rclavicle
     direction -0.937751 0.334612 -0.0930482   
     length 3.46287  
     axis 0 0 0   XYZ 
    dof ry rz
    limits (-10.0 20.0)
           (-20.0 0.0)
  end
  begin
     id 25 
     name rhumerus
     direction -1 -4.48962e-011 3.59972e-027  
     length 5.352   
     axis 180 30 90   XYZ
    dof rx ry rz
    limits (-90.0 60.0)
           (-90.0 90.0)
           (-90.0 90.0)
  end
  begin
     id 26 
     name rradius
     direction -1 -4.48987e-011 -3.76925e-027   
     length 3.43721   
     axis 180 30 90   XYZ
    dof rx
    limits (-10.0 170.0)
  end
  begin
     id 27 
     name rwrist
     direction -1 -4.48943e-011 1.28112e-027   
     length 1.7186   
     axis -1.61767e-015 -90 -90   XYZ
    dof ry
    limits (-180.0 0.0)
  end
  begin
     id 28
     name rhand
     direction -1 -4.49027e-011 2.55483e-027   
     length 0.72009   
     axis -1.63363e-015 -90 -90   XYZ
    dof rx rz
    limits (-90.0 90.0)
           (-45.0 45.0)
  end
  begin
     id 29
     name rfingers
     direction -1 -4.48827e-011 5.14506e-027   
     length 0.580555   
     axis -3.26723e-015 -90 -90   XYZ
    dof rx
    limits (0.0 90.0)
  end
  begin
     id 30
     name rthumb
     direction -0.707107 -6.34936e-011 0.707107   
     length 0.833564   
     axis -90 -45 2.25915e-014   XYZ
    dof rx rz
    limits (-45.0 45.0)
           (-45.0 45.0)
  end
:hierarchy
  begin
    root lhipjoint rhipjoint lowerback
    lhipjoint lfemur
    lfemur ltibia
    ltibia lfoot
    lfoot ltoes
    rhipjoint rfemur
    rfemur rtibia
    rtibia rfoot
    rfoot rtoes
    lowerback upperback
    upperback thorax
    thorax lowerneck lclavicle rclavicle
    lowerneck upperneck
    upperneck head
    lclavicle lhumerus
    lhumerus lradius
    lradius lwrist
    lwrist lhand lthumb
    lhand lfingers
    rclavicle rhumerus
    rhumerus rradius
    rradius rwrist
    rwrist rhand rthumb
    rhand rfingers
  end

#!OML:ASF H:\Terrain\Patient Classification 1\Terrain2\Thursday\justin.ASF
:FULLY-SPECIFIED
:DEGREES
128
root -14.2022 17.4921 4.32131 -177.743 3.19516 -178.148
lowerback 6.09721 0.57669 0.719459
upperback 2.95134 1.02359 1.63616
thorax -0.399028 0.593799 1.21127
lowerneck -12.5671 -4.8907 -10.3077
upperneck 35.3793 -1.99553 3.21812
head 14.5285 -0.663537 3.11222
rclavicle 2.43511e-015 -9.54166e-015
rhumerus -29.3083 -12.7175 -78.4468
rradius 28.7141
rwrist -10.4619
rhand -19.3307 13.6036
rfingers 7.12502
rthumb 6.98595 -16.2611
lclavicle 2.43511e-015 -9.54166e-015
lhumerus -29.2059 6.24594 83.6849
lradius 34.6609
lwrist 3.0341
lhand -11.1204 25.3841
lfingers 7.12502
lthumb 14.9045 54.8279
rfemur -8.43429 -8.58634 18.519
rtibia 65.1636
rfoot 3.81295 -11.8498
rtoes 11.9031
lfemur -20.1112 7.3656 -21.8413
ltibia 29.4786
lfoot -7.14812 -9.31583
ltoes 14.7623
129
root -14.2015 17.4963 4.21793 -177.797 2.99349 -178.158
lowerback 6.16592 0.492462 0.590888
upperback 2.81525 0.901824 1.72805
thorax -0.57836 0.52858 1.38361
lowerneck -12.8711 -4.95348 -10.4169
upperneck 36.0574 -1.86461 3.20415
head 14.9159 -0.599209 3.18211
rclavicle -1.2921e-015 -5.96354e-015
rhumerus -29.4172 -12.5118 -78.384
rradius 29.2696
rwrist -10.8564
rhand -19.3156 13.2369
rfingers 7.12502
rthumb 7.00047 -16.6273
lclavicle -1.2921e-015 -5.96354e-015
lhumerus -29.1286 5.86956 83.8539
lradius 34.7752
lwrist 4.80948
lhand -10.5269 25.1216
lfingers 7.12502
lthumb 15.4762 54.5221
rfemur -9.53162 -8.45042 18.619
rtibia 65.955
rfoot 4.48539 -12.5092
rtoes 14.9563
lfemur -19.5824 6.74807 -21.7531
ltibia 29.3746
lfoot -7.24381 -9.0313
ltoes 16.2721
130
root -14.203 17.4989 4.11302 -177.835 2.70746 -178.468
lowerback 5.99388 0.447224 0.302666
upperback 2.78716 0.813057 1.63324
thorax -0.512187 0.478375 1.4554
lowerneck -12.8364 -5.03086 -10.373
upperneck 36.3243 -1.92237 3.21698
head 15.042 -0.599649 3.18618
rclavicle 1.85864e-014 1.35174e-014
rhumerus -29.4016 -12.4154 -78.5029
rradius 29.8962
rwrist -11.6804
rhand -19.8161 12.996
rfingers 7.12502
rthumb 6.51733 -16.8837
lclavicle 1.85864e-014 1.35174e-014
lhumerus -28.8763 5.55313 83.8666
lradius 35.1001
lwrist 5.29296
lhand -11.8368 25.5199
lfingers 7.12502
lthumb 14.2143 55.0135
rfemur -10.7097 -8.5043 18.3254
rtibia 66.6614
rfoot 2.9075 -11.8888
rtoes 12.8821
lfemur -19.1262 6.35768 -22.0928
ltibia 29.2956
lfoot -7.41769 -8.9812
ltoes 17.2611
131
root -14.2065 17.4955 4.00579 -177.961 2.44712 -178.864
lowerback 5.85879 0.463412 0.0376394
upperback 2.87578 0.813284 1.421
thorax -0.346395 0.475713 1.38818
lowerneck -12.6818 -5.15221 -10.0128
upperneck 36.0982 -2.21034 3.02952
head 14.9077 -0.704806 2.98482
rclavicle -3.18055e-015 7.15625e-015
rhumerus -29.2263 -12.4764 -78.6987
rradius 30.4322
rwrist -12.422
rhand -19.9248 13.0446
rfingers 7.12502
rthumb 6.41243 -16.8383
lclavicle -3.18055e-015 7.15625e-015
lhumerus -28.3355 5.38426 83.6746
lradius 35.4457
lwrist 4.72476
lhand -13.6169 25.8957
lfingers 7.12502
lthumb 12.4985 55.5019
rfemur -11.7055 -8.53909 17.8381
rtibia 67.2586
rfoot 2.14114 -11.8216
rtoes 16.5936
lfemur -18.6286 6.36595 -22.595
ltibia 29.2554
lfoot -7.78779 -9.14102
ltoes 16.0037
132
root -14.2068 17.4829 3.90075 -178.181 2.18009 -179.032
lowerback 5.89354 0.397146 -0.204168
upperback 2.93403 0.716903 1.43584
thorax -0.306141 0.426869 1.54523
lowerneck -12.5124 -5.28131 -10.0397
upperneck 35.994 -2.40963 2.96731
head 14.8371 -0.803676 2.92598
rclavicle 3.62782e-015 1.47101e-014
rhumerus -29.0339 -12.4027 -78.6633
rradius 30.8655
rwrist -12.6209
rhand -19.612 12.8758
rfingers 7.12502
rthumb 6.71436 -16.9978
lclavicle 3.62782e-015 1.47101e-014
lhumerus -28.2017 5.53077 83.5978
lradius 36.0954
lwrist 4.7134
lhand -15.1417 24.995
lfingers 7.12502
lthumb 11.028 54.6853
rfemur -12.497 -8.49994 17.6556
rtibia 67.7314
rfoot -0.257789 -11.3378
rtoes 13.1159
lfemur -18.1093 6.62087 -22.9036
ltibia 29.2509
lfoot -8.45565 -9.19829
ltoes 11.7283
133
root -14.21 17.4725 3.79692 -178.294 1.85481 -179.225
lowerback 5.98281 0.224972 -0.539615
upperback 2.83779 0.467765 1.54699
thorax -0.450308 0.297901 1.86235
lowerneck -12.5079 -5.30002 -10.0572
upperneck 36.174 -2.28088 2.69602
head 14.913 -0.776566 2.84496
rclavicle 6.41081e-015 1.11319e-014
rhumerus -29.0097 -11.8935 -78.5746
rradius 31.3356
rwrist -12.8041
rhand -19.9312 12.9235
rfingers 7.12502
rthumb 6.40623 -16.9596
lclavicle 6.41081e-015 1.11319e-014
lhumerus -28.3895 5.86376 83.5634
lradius 36.7657
lwrist 5.22553
lhand -16.3132 23.8525
lfingers 7.12502
lthumb 9.898 53.5998
rfemur -13.3931 -8.57512 17.4864
rtibia 68.055
rfoot -0.328027 -11.2484
rtoes 15.0634
lfemur -17.7082 6.68361 -23.2301
ltibia 29.3363
lfoot -8.97174 -9.201
ltoes 10.2384
134
root -14.213 17.4627 3.69402 -178.361 1.40323 -179.451
lowerback 6.05757 0.0817174 -0.709449
upperback 2.82522 0.266799 1.50799
thorax -0.497615 0.196254 1.93015
lowerneck -12.8477 -5.31857 -10.0052
upperneck 36.4105 -2.23953 2.64073
head 15.1012 -0.758934 2.82805
rclavicle 2.78299e-015 1.03368e-014
rhumerus -28.893 -11.7657 -78.6006
rradius 31.7657
rwrist -12.8389
rhand -20.2954 13.0285
rfingers 7.12502
rthumb 6.05465 -16.865
lclavicle 2.78299e-015 1.03368e-014
lhumerus -28.0931 5.97096 83.3999
lradius 37.0383
lwrist 5.34112
lhand -15.6774 24.0588
lfingers 7.12502
lthumb 10.5113 53.776
rfemur -14.3745 -8.89226 17.2645
rtibia 68.2622
rfoot -2.31111 -10.5248
rtoes 11.0588
lfemur -17.3921 6.49984 -23.5267
ltibia 29.555
lfoot -9.2524 -9.394
ltoes 11.8391
135
root -14.2145 17.4474 3.59109 -178.41 0.946291 -179.49
lowerback 5.91998 -0.0339546 -0.685221
upperback 2.88095 0.115862 1.48891
thorax -0.357973 0.120912 1.90665
lowerneck -13.0717 -5.32702 -10.1676
upperneck 36.6374 -2.27677 3.00153
head 15.2757 -0.744433 3.0145
rclavicle 9.93923e-016 -5.1684e-015
rhumerus -28.7431 -11.8336 -78.6413
rradius 32.3846
rwrist -13.0537
rhand -20.3545 12.436
rfingers 7.12502
rthumb 5.99761 -17.4592
lclavicle 9.93923e-016 -5.1684e-015
lhumerus -27.6781 5.96756 83.2651
lradius 37.2997
lwrist 5.33876
lhand -12.6815 26.7927
lfingers 7.12502
lthumb 13.4002 56.3417
rfemur -15.3766 -9.12541 17.2683
rtibia 68.4117
rfoot -3.59625 -10.2415
rtoes 10.4252
lfemur -17.136 6.10613 -23.6048
ltibia 29.8775
lfoot -9.78778 -9.41327
ltoes 12.2521
136
root -14.2132 17.4225 3.49057 -178.474 0.758784 -179.561
lowerback 5.87183 -0.100238 -0.895759
upperback 2.75158 0.00820783 1.55664
thorax -0.45964 0.0621958 2.10131
lowerneck -12.8235 -5.23296 -10.1142
upperneck 36.6982 -2.08185 2.90532
head 15.2285 -0.648371 3.0038
rclavicle 3.62782e-015 2.38542e-015
rhumerus -28.8367 -11.2587 -78.6756
rradius 33.0044
rwrist -13.7155
rhand -20.7395 12.0293
rfingers 7.12502
rthumb 5.62587 -17.876
lclavicle 3.62782e-015 2.38542e-015
lhumerus -27.6661 6.1593 83.1986
lradius 37.5819
lwrist 5.64307
lhand -15.0935 22.6579
lfingers 7.12502
lthumb 11.0746 52.3457
rfemur -16.3852 -9.07615 17.243
rtibia 68.5175
rfoot -4.56124 -9.97134
rtoes 9.36302
lfemur -16.8776 5.68327 -23.6765
ltibia 30.3031
lfoot -10.4199 -9.12371
ltoes 12.1434
137
root -14.2081 17.3953 3.39189 -178.67 0.70612 -179.755
lowerback 6.06524 -0.0757931 -1.27807
upperback 2.69273 0.0188259 1.6164
thorax -0.627137 0.0655259 2.3778
lowerneck -12.6681 -5.20878 -10.0215
upperneck 36.5515 -2.00964 2.65276
head 15.1103 -0.636442 2.8862
rclavicle -5.46658e-016 2.14687e-014
rhumerus -28.7864 -10.7373 -78.6498
rradius 33.3345
rwrist -14.1521
rhand -21.1687 12.2225
rfingers 7.12502
rthumb 5.21146 -17.6934
lclavicle -5.46658e-016 2.14687e-014
lhumerus -27.5912 6.34532 83.2529
lradius 37.9118
lwrist 6.14327
lhand -16.0847 21.7925
lfingers 7.12502
lthumb 10.1184 51.5292
rfemur -17.2505 -8.97191 17.0774
rtibia 68.5293
rfoot -6.05307 -9.6893
rtoes 7.39989
lfemur -16.5096 5.71229 -23.8524
ltibia 30.7725
lfoot -11.1871 -9.08962
ltoes 11.7946
138
root -14.2046 17.3813 3.29205 -178.818 0.567984 -179.383
lowerback 6.11723 -0.0605393 -0.922751
upperback 2.78928 0.0733716 1.73971
thorax -0.559851 0.0993993 2.30136
lowerneck -12.9046 -5.41723 -10.205
upperneck 36.7508 -2.34159 2.9521
head 15.3011 -0.765249 2.99837
rclavicle -4.47266e-015 -2.42517e-014
rhumerus -28.5809 -10.747 -78.6316
rradius 33.7359
rwrist -14.291
rhand -20.9861 12.3592
rfingers 7.12502
rthumb 5.38781 -17.5523
lclavicle -4.47266e-015 -2.42517e-014
lhumerus -27.2678 6.08627 83.3913
lradius 38.5207
lwrist 6.81881
lhand -16.4946 23.1848
lfingers 7.12502
lthumb 9.72302 52.9404
rfemur -18.1087 -8.84154 17.6208
rtibia 68.339
rfoot -8.22188 -9.57172
rtoes 3.90878
lfemur -16.1795 5.7515 -23.4096
ltibia 31.2233
lfoot -12.1755 -9.0955
ltoes 10.9884
